<!-- Generated by IcoMoon.io -->
<svg version="1.1" xmlns="http://www.w3.org/2000/svg" width="29" height="32" viewBox="0 0 29 32">
<path d="M17.819 28.348v0c-0.511 1.133-0.849 2.362-0.978 3.652l10.812-2.298c0.511-1.133 0.848-2.362 0.978-3.652l-10.812 2.298z"></path>
<path d="M27.653 22.816c0.511-1.133 0.849-2.362 0.978-3.652l-8.422 1.791v-3.444l7.444-1.582c0.511-1.133 0.849-2.362 0.978-3.652l-8.422 1.79v-12.384c-1.291 0.725-2.437 1.689-3.368 2.827v10.273l-3.368 0.716v-15.5c-1.291 0.724-2.437 1.689-3.368 2.827v13.389l-7.537 1.602c-0.511 1.133-0.849 2.362-0.979 3.652l8.515-1.81v4.337l-9.126 1.939c-0.511 1.133-0.849 2.362-0.978 3.652l9.552-2.030c0.778-0.162 1.446-0.621 1.88-1.254l1.752-2.598c0.182-0.269 0.288-0.593 0.288-0.942v-3.82l3.368-0.716v6.887l10.813-2.299z"></path>
</svg>
